<?xml version="1.0" encoding="UTF-8"?>
<svg width="48" height="38" version="1.1" viewBox="0 0 12.7 10.054167" xmlns="http://www.w3.org/2000/svg" xmlns:cc="http://creativecommons.org/ns#" xmlns:dc="http://purl.org/dc/elements/1.1/" xmlns:rdf="http://www.w3.org/1999/02/22-rdf-syntax-ns#">
  <defs>
    <filter id="c" color-interpolation-filters="sRGB">
      <feColorMatrix result="fbSourceGraphic" values="2 -0.5 -0.5 0 0 -0.5 2 -0.5 0 0 -0.5 -0.5 2 0 0 0 0 0 1 0 "/>
      <feColorMatrix in="fbSourceGraphic" result="fbSourceGraphicAlpha" values="0 0 0 -1 0 0 0 0 -1 0 0 0 0 -1 0 0 0 0 1 0"/>
      <feColorMatrix in="fbSourceGraphic" values="2 -0.5 -0.5 0 0 -0.5 2 -0.5 0 0 -0.5 -0.5 2 0 0 0 0 0 1 0 "/>
    </filter>
    <filter id="d" color-interpolation-filters="sRGB">
      <feColorMatrix result="fbSourceGraphic" values="2 -0.5 -0.5 0 0 -0.5 2 -0.5 0 0 -0.5 -0.5 2 0 0 0 0 0 1 0 "/>
      <feColorMatrix in="fbSourceGraphic" result="fbSourceGraphicAlpha" values="0 0 0 -1 0 0 0 0 -1 0 0 0 0 -1 0 0 0 0 1 0"/>
      <feColorMatrix in="fbSourceGraphic" values="2 -0.5 -0.5 0 0 -0.5 2 -0.5 0 0 -0.5 -0.5 2 0 0 0 0 0 1 0 "/>
    </filter>
  </defs>
  <metadata>
    <rdf:RDF>
      <cc:Work rdf:about="">
        <dc:format>image/svg+xml</dc:format>
        <dc:type rdf:resource="http://purl.org/dc/dcmitype/StillImage"/>
        <dc:title/>
      </cc:Work>
    </rdf:RDF>
  </metadata>
  <g transform="translate(0 -286.95)">
    <rect x=".21462" y="287.25" width="12.331" height="9.5024" ry=".56575" fill="#e6e6e6" stroke="#e6e6e6" stroke-linecap="round" stroke-linejoin="round" stroke-width=".36879" style="paint-order:normal"/>
    <path transform="matrix(.10504 0 0 .098922 -6.0834 280.6)" d="m73.958 75.66h89.41c2.3083 0 4.1667 1.8583 4.1667 4.1667l2.8e-4 52.653h-21.742v9.414h-8.694l4e-5 12.586h-36.871l-4e-5 -12.586h-8.694v-9.414h-21.742l-3.4e-4 -52.653c-1.1e-5 -2.3083 1.8583-4.1667 4.1667-4.1667z" fill="#4d4d4d" filter="url(#d)" stroke="#4d4d4d" stroke-linecap="square" stroke-width="2.5"/>
    <g transform="matrix(.10484 0 0 .10484 -6.0999 280.7)" fill="#fff" filter="url(#c)" stroke="#fff" stroke-linecap="square">
      <path d="m80.556 75.747h3.9062v22.786h-3.9062z"/>
      <path d="m153.6 75.747h3.9062v22.786h-3.9062z"/>
      <path d="m132.73 75.747h3.9062v22.786h-3.9062z"/>
      <path d="m122.3 75.747h3.9062v22.786h-3.9062z"/>
      <path d="m111.86 75.747h3.9062v22.786h-3.9062z"/>
      <path d="m101.43 75.747h3.9062v22.786h-3.9062z"/>
      <path d="m90.991 75.747h3.9062v22.786h-3.9062z"/>
      <path d="m143.17 75.747h3.9062v22.786h-3.9062z"/>
    </g>
    <rect x="1.2362" y="294.55" width="1.6029" height="1.3842" ry=".10835" fill="#f00" stroke="#f00" stroke-linecap="round" stroke-width=".22127" style="paint-order:normal"/>
  </g>
</svg>
