<?xml version="1.0" encoding="UTF-8"?>
<svg width="48" height="38" version="1.1" viewBox="0 0 12.7 10.054167" xmlns="http://www.w3.org/2000/svg" xmlns:cc="http://creativecommons.org/ns#" xmlns:dc="http://purl.org/dc/elements/1.1/" xmlns:rdf="http://www.w3.org/1999/02/22-rdf-syntax-ns#">
  <metadata>
    <rdf:RDF>
      <cc:Work rdf:about="">
        <dc:format>image/svg+xml</dc:format>
        <dc:type rdf:resource="http://purl.org/dc/dcmitype/StillImage"/>
        <dc:title/>
      </cc:Work>
    </rdf:RDF>
  </metadata>
  <g transform="translate(0 -286.95)">
    <g transform="matrix(.24076 0 0 .24076 -.12725 252.16)" fill="#4d4d4d">
      <g transform="translate(-52.483 -2.2954)">
        <path d="m78.041 159.22-5.3807 28.249h13.452l-5.3807-28.249z" color="#000000" color-rendering="auto" dominant-baseline="auto" fill="#4d4d4d" image-rendering="auto" shape-rendering="auto" solid-color="#000000" style="font-feature-settings:normal;font-variant-alternates:normal;font-variant-caps:normal;font-variant-ligatures:normal;font-variant-numeric:normal;font-variant-position:normal;isolation:auto;mix-blend-mode:normal;shape-padding:0;text-decoration-color:#000000;text-decoration-line:none;text-decoration-style:solid;text-indent:0;text-orientation:mixed;text-transform:none;white-space:normal"/>
      </g>
      <circle cx="26.904" cy="157.39" r="5.2612"/>
    </g>
    <path d="m1.9224 290.31c0.011258 0.18476 0.029172 0.31526 0.073697 0.53789 0.034802 0.17248 0.047085 0.21803 0.11874 0.43451 0.081886 0.24874 0.12897 0.36491 0.21853 0.54455 0.15865 0.3168 0.35672 0.60903 0.58958 0.87055 0.10133 0.11362 0.14023 0.14996 0.18117 0.17095 0.047085 0.0235 0.083934 0.0307 0.14074 0.0271 0.079839-5e-3 0.14074-0.0333 0.1996-0.0926 0.081374-0.0819 0.1085-0.19192 0.072162-0.29172-0.017911-0.0502-0.03429-0.0737-0.098776-0.14483-0.15712-0.17145-0.27586-0.32448-0.38743-0.50054-0.1607-0.25282-0.26306-0.47186-0.36286-0.77792-0.092634-0.28302-0.12385-0.43962-0.15814-0.79327-0.0087-0.0911-0.0087-0.4601 0-0.54506 0.016379-0.15661 0.05425-0.36184 0.10441-0.56041 0.046061-0.18476 0.12078-0.39562 0.19806-0.55785 0.17043-0.35979 0.35365-0.63155 0.61261-0.90997 0.058856-0.063 0.083934-0.1044 0.097241-0.16019 0.010748-0.045 0.00717-0.11003-0.00818-0.15405-0.031731-0.0916-0.11515-0.1694-0.20779-0.19346-0.03992-0.0102-0.13-0.0102-0.16633 4.8e-4 -0.052203 0.0154-0.082399 0.0404-0.19653 0.16582-0.39766 0.43707-0.68426 0.94272-0.85776 1.5144-0.031731 0.10543-0.087004 0.32908-0.10389 0.42018-0.014841 0.0804-0.04555 0.32345-0.056809 0.44526-0.00818 0.0916-0.00972 0.42683-0.00205 0.55017z" fill="#f00"/>
    <path d="m3.0049 290.26c0.0087 0.11311 0.017401 0.17299 0.046061 0.31987 0.040431 0.20523 0.069092 0.31271 0.12232 0.45805 0.13204 0.36184 0.3342 0.69246 0.59982 0.98059 0.087004 0.0942 0.11822 0.11618 0.18885 0.13307 0.19448 0.0455 0.39203-0.13665 0.36132-0.33369-0.00921-0.0583-0.032755-0.10236-0.085469-0.1607-0.1996-0.22109-0.30605-0.37105-0.40892-0.57679-0.12437-0.24822-0.2042-0.52203-0.23645-0.81272-0.011771-0.1039-0.011771-0.31885 0-0.42735 0.020984-0.19857 0.051691-0.34546 0.10543-0.50667 0.11208-0.3383 0.28558-0.62746 0.53482-0.89103 0.06551-0.0696 0.089564-0.12488 0.089564-0.20779 0-0.0804-0.026614-0.14074-0.089564-0.2042-0.092634-0.0937-0.21546-0.11822-0.32806-0.066-0.035826 0.0164-0.048108 0.0261-0.10696 0.086-0.24208 0.24463-0.45652 0.57883-0.59368 0.9248-0.1607 0.40534-0.23184 0.86237-0.19909 1.2846z" fill="#f00"/>
    <path d="m4.0847 290.18c0.038896 0.43911 0.21751 0.83524 0.50616 1.1234 0.078817 0.0793 0.10799 0.0988 0.1694 0.11311 0.12027 0.0281 0.2692-0.0471 0.32908-0.16684 0.025589-0.0512 0.033266-0.088 0.029683-0.1433-0.00461-0.0773-0.029171-0.1259-0.10594-0.20728-0.19704-0.20932-0.31015-0.45038-0.33727-0.71855-0.00818-0.0768-0.00665-0.2257 0.00205-0.29582 0.022007-0.17247 0.092634-0.35825 0.19295-0.50821 0.047596-0.0711 0.089052-0.12334 0.15507-0.19397 0.069604-0.0752 0.089564-0.11975 0.089564-0.20266 0-0.085-0.023542-0.13921-0.089564-0.20523-0.050667-0.0507-0.095705-0.0773-0.14995-0.0885-0.060903-0.0128-0.1346-3e-3 -0.1909 0.0251-0.055273 0.0276-0.1822 0.16531-0.27586 0.2994-0.16531 0.23645-0.2692 0.5036-0.31219 0.80351-0.0087 0.0599-0.01177 0.10646-0.012794 0.20984-0.00102 0.0732-5.345e-4 0.1433 5.345e-4 0.1561z" fill="#f00"/>
    <path d="m10.778 290.31c-0.01126 0.18476-0.02917 0.31526-0.0737 0.53789-0.0348 0.17248-0.04708 0.21803-0.11874 0.43451-0.08189 0.24874-0.12897 0.36491-0.21854 0.54455-0.15865 0.3168-0.35672 0.60903-0.58958 0.87055-0.10133 0.11362-0.14023 0.14996-0.18117 0.17095-0.047085 0.0235-0.083934 0.0307-0.14074 0.0271-0.079839-5e-3 -0.14074-0.0333-0.1996-0.0926-0.081374-0.0819-0.1085-0.19192-0.072162-0.29172 0.017911-0.0502 0.03429-0.0737 0.098776-0.14483 0.15712-0.17145 0.27586-0.32448 0.38743-0.50054 0.1607-0.25282 0.26306-0.47186 0.36286-0.77792 0.09263-0.28302 0.12385-0.43962 0.15814-0.79327 0.0087-0.0911 0.0087-0.4601 0-0.54506-0.01638-0.15661-0.05425-0.36184-0.10441-0.56041-0.04606-0.18476-0.12078-0.39562-0.19806-0.55785-0.17043-0.35979-0.35365-0.63155-0.61261-0.90997-0.058856-0.063-0.083934-0.1044-0.097241-0.16019-0.010748-0.045-0.00717-0.11003 0.00818-0.15405 0.031731-0.0916 0.11515-0.1694 0.20779-0.19346 0.03992-0.0102 0.13-0.0102 0.16633 4.8e-4 0.052203 0.0154 0.082399 0.0404 0.19653 0.16582 0.39766 0.43707 0.68426 0.94272 0.85776 1.5144 0.03173 0.10543 0.087 0.32908 0.10389 0.42018 0.01484 0.0804 0.04555 0.32345 0.05681 0.44526 0.0082 0.0916 0.0097 0.42683 2e-3 0.55017z" fill="#f00"/>
    <path d="m9.6951 290.26c-0.0087 0.11311-0.017401 0.17299-0.046061 0.31987-0.040431 0.20523-0.069092 0.31271-0.12232 0.45805-0.13204 0.36184-0.3342 0.69246-0.59982 0.98059-0.087004 0.0942-0.11822 0.11618-0.18885 0.13307-0.19448 0.0455-0.39203-0.13665-0.36132-0.33369 0.00921-0.0583 0.032755-0.10236 0.085469-0.1607 0.1996-0.22109 0.30605-0.37105 0.40892-0.57679 0.12437-0.24822 0.2042-0.52203 0.23645-0.81272 0.011771-0.1039 0.011771-0.31885 0-0.42735-0.020984-0.19857-0.051691-0.34546-0.10543-0.50667-0.11208-0.3383-0.28558-0.62746-0.53482-0.89103-0.06551-0.0696-0.089564-0.12488-0.089564-0.20779 0-0.0804 0.026614-0.14074 0.089564-0.2042 0.092634-0.0937 0.21546-0.11822 0.32806-0.066 0.035826 0.0164 0.048108 0.0261 0.10696 0.086 0.24208 0.24463 0.45652 0.57883 0.59368 0.9248 0.1607 0.40534 0.23184 0.86237 0.19909 1.2846z" fill="#f00"/>
    <path d="m8.6153 290.18c-0.038896 0.43911-0.21751 0.83524-0.50616 1.1234-0.078817 0.0793-0.10799 0.0988-0.1694 0.11311-0.12027 0.0281-0.2692-0.0471-0.32908-0.16684-0.025589-0.0512-0.033266-0.088-0.029683-0.1433 0.00461-0.0773 0.029171-0.1259 0.10594-0.20728 0.19704-0.20932 0.31015-0.45038 0.33727-0.71855 0.00818-0.0768 0.00665-0.2257-0.00205-0.29582-0.022007-0.17247-0.092634-0.35825-0.19295-0.50821-0.047596-0.0711-0.089052-0.12334-0.15507-0.19397-0.069604-0.0752-0.089564-0.11975-0.089564-0.20266 0-0.085 0.023542-0.13921 0.089564-0.20523 0.050667-0.0507 0.095705-0.0773 0.14995-0.0885 0.060903-0.0128 0.1346-3e-3 0.1909 0.0251 0.055273 0.0276 0.1822 0.16531 0.27586 0.2994 0.16531 0.23645 0.2692 0.5036 0.31219 0.80351 0.0087 0.0599 0.01177 0.10646 0.012794 0.20984 0.00102 0.0732 5.345e-4 0.1433-5.345e-4 0.1561z" fill="#f00"/>
  </g>
</svg>
