<?xml version="1.0" encoding="UTF-8"?>
<svg width="48" height="38" version="1.1" viewBox="0 0 12.7 10.054167" xmlns="http://www.w3.org/2000/svg" xmlns:cc="http://creativecommons.org/ns#" xmlns:dc="http://purl.org/dc/elements/1.1/" xmlns:rdf="http://www.w3.org/1999/02/22-rdf-syntax-ns#">
  <metadata>
    <rdf:RDF>
      <cc:Work rdf:about="">
        <dc:format>image/svg+xml</dc:format>
        <dc:type rdf:resource="http://purl.org/dc/dcmitype/StillImage"/>
        <dc:title/>
      </cc:Work>
    </rdf:RDF>
  </metadata>
  <g transform="translate(0 -286.95)">
    <g transform="translate(-.1884 .080691)">
      <path d="m6.5384 286.97c-2.4065 0-4.3442 1.9262-4.3661 4.3274h-0.00258v4.9785l1.8283-1.3772v-3.2598h0.00104c0.012746-1.3965 1.1398-2.5172 2.5394-2.5172 1.3996 0 2.5271 1.1207 2.5399 2.5172h0.00103v3.2603l1.8278 1.3767v-4.9785h-0.0021c-0.02196-2.4012-1.9601-4.3274-4.3667-4.3274zm-1.9177 8.4527-1.8268 1.3762h3.33c0.13653 0.0127 0.27447 0.0207 0.41444 0.0207 0.13998 0 0.27791-8e-3 0.41444-0.0207h3.33l-1.8268-1.3762c-1.2838 2e-3 -2.5484 6e-3 -3.8354 0z" fill="#4d4d4d"/>
      <path d="m6.5386 290.29c-0.20973 0-0.41949 0.0543-0.60725 0.16266-0.37553 0.21682-0.60725 0.61822-0.60725 1.0518l0.00225 0.46928h-0.038887c-0.13186 0-0.23782 0.10596-0.23782 0.23781v1.9725c0 0.13186 0.10596 0.23819 0.23782 0.23819h2.5019c0.13186 0 0.23782-0.10633 0.23782-0.23819v-1.9725c0-0.13185-0.10596-0.23781-0.23782-0.23781h-0.041506l0.00486-0.46928c0-0.43363-0.23135-0.83503-0.60688-1.0518-0.18777-0.10841-0.39752-0.16266-0.60725-0.16266zm-3.704e-4 0.34439c0.15017 0 0.30055 0.0389 0.43525 0.11666 0.26939 0.15553 0.43487 0.4424 0.43487 0.75346v0.46928h-1.7399v-0.46928c0-0.31106 0.16549-0.59793 0.43487-0.75346 0.13469-0.0778 0.28471-0.11666 0.43487-0.11666z" fill="#55d400"/>
    </g>
  </g>
</svg>
