<?xml version="1.0" encoding="UTF-8"?>
<svg width="48" height="38" version="1.1" viewBox="0 0 12.7 10.054167" xmlns="http://www.w3.org/2000/svg" xmlns:cc="http://creativecommons.org/ns#" xmlns:dc="http://purl.org/dc/elements/1.1/" xmlns:rdf="http://www.w3.org/1999/02/22-rdf-syntax-ns#">
  <metadata>
    <rdf:RDF>
      <cc:Work rdf:about="">
        <dc:format>image/svg+xml</dc:format>
        <dc:type rdf:resource="http://purl.org/dc/dcmitype/StillImage"/>
        <dc:title/>
      </cc:Work>
    </rdf:RDF>
  </metadata>
  <g transform="translate(0 -286.95)">
    <g transform="matrix(.18492 0 0 .18492 .72476 300.09)" fill="#999" stroke-linecap="square" stroke-width=".16559">
      <path d="m53.807-63.688v2.6904h2.6904v-2.6904z"/>
      <path d="m56.497-58.308h-2.6904v2.6904h2.6904z"/>
    </g>
    <path d="m9.1821 287.18-2.676 8e-3 -0.55628 0.72438v0.82251c-0.50289 0-1.0355-0.0161-1.559-0.0126-0.17453 9.4e-4 -0.34823 5e-3 -0.51936 0.0112-0.6845 0.0271-1.3301 0.10992-1.8452 0.33134-1.7817 0.81622-1.5754 2.7916-0.18899 3.5471 0.90244 0.47144 2.1558 0.29635 3.6151 0.29635 1.23 0 2.1268 0.0536 2.5822 0.27693 0.7188 0.38566 0.90613 1.1379 0.42219 1.6941-0.34934 0.38974-1.096 0.65462-1.9982 0.65684v-0.16129l-0.39887-0.35931h-1.7412v0.33182h-0.89053v1.0776h0.89053v0.33182h1.7412l0.39887-0.37846v-0.17102c1.0263-2e-3 1.9514-0.27028 2.4986-0.88081 0.79321-1.0411 0.36166-2.2421-0.62721-2.7454-0.69358-0.34015-1.6371-0.34493-2.8776-0.34493-1.4979 0-2.7296 0.0801-3.3042-0.22009-1.2688-0.68414-0.75954-1.9304 0.14332-2.3349 0.73738-0.31699 2.2917-0.27546 3.6583-0.27546v0.85458l0.56648 0.58445h2.6658c0.00144-7.1e-4 -0.00204-0.31501 0-0.39935h2.3971c0.20552 0 0.37701-0.17099 0.37701-0.37652v-2.0245c0-0.20552-0.17148-0.37701-0.37701-0.37701h-2.3971zm0 0.87207h2.3893v2.008h-2.3893zm-5.5434 7.5061h0.67968v0.65587h-0.67968z" fill="#999" stroke-linecap="square" stroke-width=".03062"/>
    <rect x="6.8791" y="288.37" width="1.3753" height="1.3753" ry=".27308" fill="#ccc" stroke-width=".16124" style="paint-order:normal"/>
  </g>
</svg>
