<?xml version="1.0" encoding="UTF-8"?>
<svg width="48" height="38" version="1.1" viewBox="0 0 12.7 10.054167" xmlns="http://www.w3.org/2000/svg" xmlns:cc="http://creativecommons.org/ns#" xmlns:dc="http://purl.org/dc/elements/1.1/" xmlns:rdf="http://www.w3.org/1999/02/22-rdf-syntax-ns#">
  <metadata>
    <rdf:RDF>
      <cc:Work rdf:about="">
        <dc:format>image/svg+xml</dc:format>
        <dc:type rdf:resource="http://purl.org/dc/dcmitype/StillImage"/>
        <dc:title/>
      </cc:Work>
    </rdf:RDF>
  </metadata>
  <g transform="translate(0 -286.95)">
    <path d="m5.7791 287.11c-0.40762 0.0248-0.69554 0.0644-1.1867 0.16259-0.38052 0.0768-0.48101 0.10388-0.95863 0.26196-0.54876 0.18066-0.80507 0.28454-1.2014 0.48214-0.69893 0.35003-1.3437 0.787-1.9207 1.3008-0.25067 0.22356-0.33084 0.30938-0.37713 0.39971-0.05194 0.10388-0.067748 0.18518-0.059844 0.31051 0.010162 0.17614 0.073393 0.31051 0.20437 0.44036 0.18066 0.17953 0.42342 0.23938 0.6436 0.15921 0.11065-0.0395 0.16259-0.0756 0.31954-0.21793 0.37826-0.34664 0.71587-0.6086 1.1043-0.85475 0.55779-0.35454 1.0411-0.58037 1.7163-0.80055 0.62441-0.20437 0.96992-0.27325 1.7502-0.3489 0.20099-0.0192 1.0151-0.0192 1.2025 0 0.34551 0.0361 0.79829 0.11969 1.2364 0.23034 0.40762 0.10162 0.87282 0.26648 1.2308 0.43697 0.79378 0.37601 1.3933 0.78023 2.0076 1.3516 0.13888 0.12985 0.23034 0.18518 0.35342 0.21454 0.09936 0.0237 0.24276 0.0158 0.33987-0.0181 0.20212-0.07 0.37374-0.25405 0.42681-0.45842 0.02258-0.0881 0.02258-0.2868-0.0011-0.36697-0.03387-0.11517-0.0892-0.18179-0.36584-0.43359-0.96428-0.87733-2.0799-1.5096-3.3411-1.8924-0.2326-0.07-0.72603-0.19195-0.92702-0.22921-0.17727-0.0328-0.71361-0.1005-0.98234-0.12534-0.20211-0.0181-0.94169-0.0215-1.2138-5e-3z" fill="#4d4d4d"/>
    <path d="m5.8864 289.49c-0.24954 0.0192-0.38165 0.0384-0.70571 0.10162-0.45278 0.0892-0.6899 0.15243-1.0106 0.26986-0.79829 0.29132-1.5277 0.73732-2.1634 1.3233-0.20776 0.19195-0.25631 0.26083-0.29357 0.41665-0.10049 0.42907 0.30148 0.86491 0.73619 0.79717 0.12872-0.0203 0.22583-0.0723 0.35455-0.18857 0.48778-0.44036 0.81862-0.67522 1.2725-0.90217 0.54763-0.27438 1.1517-0.45053 1.7931-0.52166 0.22921-0.026 0.70345-0.026 0.94282 0 0.4381 0.0463 0.76216 0.11404 1.1178 0.2326 0.74635 0.24728 1.3843 0.63005 1.9658 1.1799 0.15356 0.14453 0.27551 0.1976 0.45843 0.1976 0.17727 0 0.31051-0.0587 0.45052-0.1976 0.20663-0.20437 0.26083-0.47536 0.14566-0.72377-0.03613-0.079-0.05759-0.10614-0.18969-0.23599-0.53972-0.53408-1.277-1.0072-2.0403-1.3098-0.89427-0.35455-1.9026-0.5115-2.8341-0.43923z" fill="#4d4d4d"/>
    <path d="m6.067 291.88c-0.96879 0.0858-1.8427 0.47988-2.4784 1.1167-0.17502 0.17389-0.21792 0.23825-0.24954 0.37374-0.062102 0.26535 0.10388 0.59393 0.3681 0.72603 0.11291 0.0565 0.19421 0.0734 0.31616 0.0655 0.1705-0.0102 0.27777-0.0644 0.4573-0.23373 0.46181-0.43471 0.99363-0.68425 1.5853-0.74409 0.16937-0.0181 0.49795-0.0147 0.65264 5e-3 0.38052 0.0486 0.79039 0.20438 1.1212 0.42568 0.15695 0.10501 0.27212 0.19647 0.42794 0.34213 0.16598 0.15356 0.26422 0.1976 0.44714 0.1976 0.18744 0 0.30712-0.0519 0.45278-0.1976 0.11178-0.11178 0.1705-0.21115 0.19534-0.33083 0.028228-0.13437 0.00677-0.29697-0.055327-0.42117-0.060973-0.12195-0.36471-0.40197-0.66054-0.6086-0.52166-0.36471-1.1111-0.59392-1.7727-0.68877-0.13211-0.0192-0.23486-0.026-0.46294-0.0282-0.16147-2e-3 -0.31616-1e-3 -0.34438 1e-3z" fill="#4d4d4d"/>
    <path d="m6.1393 294.1c-0.57021 0.10049-1.0298 0.54537-1.1438 1.1088-0.016937 0.0802-0.023712 0.15695-0.023712 0.26083 0 0.23035 0.042907 0.41439 0.14453 0.61425 0.20324 0.39745 0.57134 0.67296 1.0004 0.74861 0.14566 0.0248 0.37713 0.0226 0.51714-6e-3 0.26986-0.0553 0.50359-0.18857 0.71474-0.40762 0.2247-0.23373 0.35229-0.50811 0.38165-0.82088 0.045165-0.48778-0.15808-0.93605-0.55666-1.2319-0.16485-0.12307-0.33084-0.19985-0.53634-0.25066-0.12082-0.0305-0.37261-0.0384-0.49795-0.0158z" fill="#f00"/>
  </g>
</svg>
