<?xml version="1.0" encoding="UTF-8"?>
<svg width="48" height="38" version="1.1" viewBox="0 0 12.7 10.054167" xmlns="http://www.w3.org/2000/svg" xmlns:cc="http://creativecommons.org/ns#" xmlns:dc="http://purl.org/dc/elements/1.1/" xmlns:rdf="http://www.w3.org/1999/02/22-rdf-syntax-ns#">
  <metadata>
    <rdf:RDF>
      <cc:Work rdf:about="">
        <dc:format>image/svg+xml</dc:format>
        <dc:type rdf:resource="http://purl.org/dc/dcmitype/StillImage"/>
        <dc:title/>
      </cc:Work>
    </rdf:RDF>
  </metadata>
  <g transform="translate(0 -286.95)">
    <g transform="matrix(1.653 0 0 1.653 -70.711 222.36)" stroke-linecap="square">
      <g transform="translate(-.0021341 .015709)" stroke="#4d4d4d">
        <g transform="matrix(6.8307e-4,0,0,-6.8307e-4,42.248,46.469)" stroke="none">
          <path d="m5895 10709c-361-22-616-57-1051-144-337-68-426-92-849-232-486-160-713-252-1064-427-619-310-1190-697-1701-1152-222-198-293-274-334-354-46-92-60-164-53-275 9-156 65-275 181-390 160-159 375-212 570-141 98 35 144 67 283 193 335 307 634 539 978 757 494 314 922 514 1520 709 553 181 859 242 1550 309 178 17 899 17 1065 0 306-32 707-106 1095-204 361-90 773-236 1090-387 703-333 1234-691 1778-1197 123-115 204-164 313-190 88-21 215-14 301 16 179 62 331 225 378 406 20 78 20 254-1 325-30 102-79 161-324 384-854 777-1842 1337-2959 1676-206 62-643 170-821 203-157 29-632 89-870 111-179 16-834 19-1075 4z" fill="#4d4d4d"/>
          <path d="m5990 8594c-221-17-338-34-625-90-401-79-611-135-895-239-707-258-1353-653-1916-1172-184-170-227-231-260-369-89-380 267-766 652-706 114 18 200 64 314 167 432 390 725 598 1127 799 485 243 1020 399 1588 462 203 23 623 23 835 0 388-41 675-101 990-206 661-219 1226-558 1741-1045 136-128 244-175 406-175 157 0 275 52 399 175 183 181 231 421 129 641-32 70-51 94-168 209-478 473-1131 892-1807 1160-792 314-1685 453-2510 389z" fill="#4d4d4d"/>
          <path d="m6150 6484c-858-76-1632-425-2195-989-155-154-193-211-221-331-55-235 92-526 326-643 100-50 172-65 280-58 151 9 246 57 405 207 409 385 880 606 1404 659 150 16 441 13 578-4 337-43 700-181 993-377 139-93 241-174 379-303 147-136 234-175 396-175 166 0 272 46 401 175 99 99 151 187 173 293 25 119 6 263-49 373-54 108-323 356-585 539-462 323-984 526-1570 610-117 17-208 23-410 25-143 2-280 1-305-1z" fill="#4d4d4d"/>
          <path d="m6214 4515c-505-89-912-483-1013-982-15-71-21-139-21-231 0-204 38-367 128-544 180-352 506-596 886-663 129-22 334-20 458 5 239 49 446 167 633 361 199 207 312 450 338 727 40 432-140 829-493 1091-146 109-293 177-475 222-107 27-330 34-441 14z" fill="#50d400"/>
        </g>
      </g>
    </g>
  </g>
</svg>
